<?xml version="1.0" encoding="UTF-8"?>
<svg id="Layer_2" data-name="Layer 2" xmlns="http://www.w3.org/2000/svg" viewBox="0 0 191.75 37.32">
  <defs>
    <style>
      .cls-1 {
        fill: #e0267a;
      }
    </style>
  </defs>
  <g id="Layer_1-2" data-name="Layer 1">
    <g>
      <path class="cls-1" d="M160.67,6.74c-.78-.75-1.18-1.69-1.18-2.81s.39-2.06,1.18-2.81c.78-.75,1.77-1.13,2.95-1.13s2.17.38,2.95,1.13c.78.75,1.18,1.69,1.18,2.81s-.39,2.06-1.18,2.81c-.78.75-1.77,1.13-2.95,1.13s-2.17-.38-2.95-1.13Z"/>
      <path class="cls-1" d="M148.52,10.17v.58l.05-.17.12-.41h-.17ZM141.92,10.58l.05.17v-.58h-.05v.41Z"/>
      <path class="cls-1" d="M131.7,29.69c-1.06-1.14-1.58-2.76-1.58-4.88v-14.64h-.05v14.64c0,2.12.53,3.74,1.58,4.88.94,1.01,2.19,1.57,3.74,1.67-1.54-.12-2.76-.68-3.69-1.67ZM148.52,10.17v14.64c0,.64.05,1.24.15,1.79,0-.08.01-.15.01-.24h0c.01-.2.01-.39.01-.59v-15.6h-.17Z"/>
      <path class="cls-1" d="M167.09,10.17v14.64c0,.38.02.75.06,1.1v-15.74h-.06ZM158.66,36.92c-.57.08-1.21.14-1.87.17.65-.01,1.27-.06,1.87-.17ZM148.68,26.36h0c-.07-.49-.11-1-.11-1.55v-14.64h-.05v14.64c0,.64.05,1.24.15,1.79.22,1.27.7,2.3,1.44,3.09.93,1.01,2.18,1.57,3.73,1.67-1.53-.12-2.76-.68-3.68-1.67-.79-.84-1.28-1.95-1.48-3.33ZM141.8,10.17l.12.41.05.17v-.58h-.17Z"/>
      <path class="cls-1" d="M167.09,10.17v.21l.05-.18v-.03s-.05,0-.05,0ZM160.38,24.81c0,.13,0,.26-.01.39-.06,1.93-.59,3.42-1.57,4.49-.93.99-2.16,1.55-3.69,1.67,1.55-.1,2.8-.66,3.73-1.67.87-.93,1.38-2.19,1.53-3.78.04-.35.06-.72.06-1.1v-14.64h-.05v14.64ZM160.37,36.5c-.53.18-1.07.32-1.64.41.69-.1,1.27-.23,1.64-.41ZM141.8,10.17l.12.41.05.17v-.58h-.17Z"/>
      <path class="cls-1" d="M191.75,16.03v-5.52h-5.95V3.93h-6.77v6.58h-3.17v5.52h3.14v8.78c0,2.12-.53,3.74-1.59,4.88-.93,1.01-2.18,1.57-3.73,1.67-.22.02-.45.03-.68.03-.2,0-.4-.01-.59-.03-1.55-.1-2.8-.66-3.73-1.67-.87-.93-1.38-2.19-1.53-3.78-.04-.35-.06-.72-.06-1.1v-14.64h-6.66v14.64c0,.38-.02.75-.06,1.1-.15,1.59-.66,2.85-1.53,3.78-.93,1.01-2.18,1.57-3.73,1.67-.22.02-.45.03-.68.03-.2,0-.4-.01-.59-.03-1.55-.1-2.8-.66-3.73-1.67-.74-.79-1.22-1.82-1.44-3.09-.1-.55-.15-1.15-.15-1.79v-14.64h-6.55v.58l-.05-.17-.12-.41v15.6c0,.2,0,.39.01.58-.19,1.38-.68,2.49-1.47,3.34-.93.99-2.15,1.55-3.69,1.67-.19.02-.38.03-.58.03-.23,0-.46-.01-.68-.03-1.55-.1-2.8-.66-3.74-1.67-1.05-1.14-1.58-2.76-1.58-4.88v-14.64h-6.72v15.6c0,2.13.36,4,1.12,5.6-.13.02-.26.02-.4.02-1.83,0-3.27-.57-4.32-1.7-1.06-1.14-1.59-2.76-1.59-4.88v-7.56l.05-15.99h-6.82v12.62c-.93-1.25-2.17-2.24-3.74-3-1.57-.75-3.22-1.13-4.95-1.13-2.27,0-4.33.57-6.19,1.68-1.85,1.13-3.32,2.73-4.39,4.8-1.07,2.09-1.61,4.47-1.61,7.16s.54,5.13,1.61,7.22c.13.26.27.52.42.77-1.22-.21-2.22-.74-3.01-1.59-.77-.82-1.26-1.91-1.47-3.26-.08-.5-.12-1.04-.12-1.61v-5.38c-.32-2.6-1.25-4.71-2.81-6.31-1.11-1.13-2.41-1.94-3.91-2.44-1.14-.37-2.4-.56-3.77-.56-1.67,0-3.19.33-4.59.99-1.39.66-2.53,1.56-3.43,2.71v-3.31h-6.72c-.55,1.21-1.51,2.32-2.92,2.8-1.52.52-2.91.38-4.16-.41h-.06c-.71-.63-1.47-1.19-2.32-1.66-2.08-1.13-4.4-1.7-6.96-1.7s-4.88.57-6.96,1.7c-2.08,1.14-3.72,2.75-4.92,4.83-.15.25-.28.51-.41.77h0s-3.39,5.01-3.39,5.01c-1.35,1.69-4.68,5.13-6.33,6.52l-1.24.72-.1.05c-.44.23-.85.44-1.17.63-1.4.82-3,1.22-4.83,1.22-1.95,0-3.69-.45-5.21-1.36-1.52-.92-2.7-2.21-3.55-3.89-.85-1.68-1.27-3.63-1.27-5.83s.42-4.2,1.27-5.86c.85-1.66,2.03-2.95,3.55-3.86,1.52-.92,3.26-1.37,5.21-1.37,1.83,0,3.43.4,4.83,1.2,1.39.8,2.47,2,3.24,3.6l5.48-4.07c-1.91-2.47-1.65-2.35-3.66-3.9-2.7-2.08-6.1-2.88-9.84-2.88-3.2,0-6.09.73-8.66,2.18-2.58,1.46-4.61,3.49-6.1,6.1-1.49,2.61-2.23,5.56-2.23,8.86s.74,6.24,2.23,8.83c1.49,2.59,3.52,4.61,6.1,6.07,2.57,1.46,5.46,2.18,8.66,2.18,3.77,0,7.06-.95,9.86-2.85,2.31-1.58,4.77-4.28,6.19-7.1.29,1.23.73,2.37,1.32,3.43,1.17,2.08,2.78,3.68,4.83,4.82s4.35,1.7,6.91,1.7,4.94-.56,7.03-1.7c2.1-1.14,3.76-2.74,5-4.82,1.23-2.08,1.84-4.48,1.84-7.2,0-1.35-.15-2.61-.44-3.79.16-.05.32-.08.48-.13.94-.32,2.34-2.36,2.7-3.65v21.4h6.72v-14.69c0-2.11.54-3.73,1.61-4.87,1.07-1.13,2.54-1.7,4.39-1.7s3.27.57,4.32,1.7c.77.83,1.26,1.92,1.47,3.27.08.5.12,1.03.12,1.6v5.32c.18,1.55.6,2.94,1.25,4.16.92,1.72,2.17,3.01,3.77,3.89.54.3,1.1.54,1.7.73,1.17.4,2.44.59,3.82.59,1.63,0,3.15-.33,4.54-.98.25-.12.5-.25.73-.39,1.68.91,3.52,1.37,5.51,1.37s3.72-.4,5.23-1.2c1.5-.8,2.67-1.85,3.5-3.17,1.47,1.75,4.62,3.16,6.82,3.77v-.12c1.18.41,2.48.61,3.89.61,1.63,0,3.14-.33,4.53-.98.45-.21.86-.44,1.25-.7.19.13.39.25.6.36.59.32,1.21.59,1.87.79,0,0,0,.01.02.01h.01c1.4.66,5.82.76,7.66.52,2.06-.27,3.92-.44,5.52-1.32.62-.34,1.18-.74,1.69-1.19.51.46,1.08.85,1.69,1.19,1.6.88,3.44,1.22,5.52,1.32,1.15.06,2.74.07,4.22,0,.03,0,.07-.01.11-.01.66-.03,1.3-.09,1.87-.17.03,0,.05,0,.07,0,.57-.09,1.11-.23,1.64-.41.01-.01.03-.01.04-.02.56-.18,1.09-.42,1.6-.7.64-.35,1.22-.77,1.75-1.25.53.48,1.11.9,1.75,1.25,1.6.88,3.45,1.12,5.52,1.32,1.52.15,4.98.5,6.42-.21.01,0,.01-.01.02-.01,1.12-.21,2.16-.58,3.11-1.1.29-.16.57-.33.83-.52,1.41,1.23,3.45,1.84,6.12,1.84h4.22v-5.66h-3.12c-1.02,0-1.75-.2-2.18-.6-.44-.4-.65-1.05-.65-1.95v-12.86h5.95ZM32.74,25.5h-.02s.02-.02.02-.02v.02ZM52.1,27.7c-.64,1.18-1.5,2.07-2.57,2.66-1.07.59-2.21.89-3.43.89-1.92,0-3.51-.68-4.77-2.04-1.27-1.36-1.9-3.31-1.9-5.83s.65-4.48,1.94-5.84c1.3-1.36,2.91-2.04,4.83-2.04,1.64,0,3.06.51,4.27,1.5.03.03.06.07.09.11.21.22.43.4.65.6,1.23,1.35,1.85,3.24,1.85,5.67,0,1.69-.32,3.13-.96,4.32ZM110.48,27.68c-.64,1.17-1.5,2.07-2.59,2.69-1.09.62-2.26.94-3.51.94s-2.36-.32-3.43-.96c-1.07-.64-1.93-1.56-2.59-2.76-.66-1.2-.98-2.6-.98-4.2s.32-2.99.98-4.16c.66-1.16,1.51-2.05,2.57-2.66s2.21-.91,3.45-.91,2.42.31,3.51.93c1.09.63,1.95,1.53,2.59,2.69.64,1.17.96,2.57.96,4.2s-.32,3.04-.96,4.2Z"/>
      <path class="cls-1" d="M179,10.17v.34h.03v-.34h-.03ZM167.15,25.2c-.01-.13-.01-.26-.01-.39v-14.64h-.05v14.64c0,.38.02.75.06,1.1.15,1.59.66,2.85,1.53,3.78.93,1.01,2.18,1.57,3.73,1.67-1.53-.12-2.76-.68-3.68-1.67-.99-1.07-1.52-2.56-1.58-4.49ZM160.37,10.17v.03s.06.18.06.18v-.21h-.06Z"/>
      <path class="cls-1" d="M178.95,10.17v.34h.08v-.34h-.08ZM178.95,24.81c0,2.12-.53,3.74-1.58,4.88-.93.99-2.16,1.55-3.69,1.67,1.55-.1,2.8-.66,3.73-1.67,1.06-1.14,1.59-2.76,1.59-4.88v-8.78h-.05v8.78ZM160.37,10.17v15.74c.04-.35.06-.72.06-1.1v-14.64h-.06Z"/>
    </g>
  </g>
</svg>